<mxfile host="Electron" modified="2025-02-10T17:25:14.063Z" agent="Mozilla/5.0 (X11; Linux x86_64) AppleWebKit/537.36 (KHTML, like Gecko) draw.io/22.1.2 Chrome/114.0.5735.289 Electron/25.9.4 Safari/537.36" etag="eI49qZjL5EUNnmXKzOau" version="22.1.2" type="device">
  <diagram name="Page-1" id="S1__LESrpZmO3oMLAGCy">
    <mxGraphModel dx="644" dy="563" grid="1" gridSize="10" guides="1" tooltips="1" connect="1" arrows="1" fold="1" page="1" pageScale="1" pageWidth="583" pageHeight="413" math="0" shadow="0">
      <root>
        <mxCell id="0" />
        <mxCell id="1" parent="0" />
        <mxCell id="IBm5FJCkrSXbt0ttpxEb-8" style="edgeStyle=orthogonalEdgeStyle;rounded=0;orthogonalLoop=1;jettySize=auto;html=1;exitX=0;exitY=1;exitDx=0;exitDy=0;curved=1;" edge="1" parent="1" source="IBm5FJCkrSXbt0ttpxEb-1" target="IBm5FJCkrSXbt0ttpxEb-2">
          <mxGeometry relative="1" as="geometry" />
        </mxCell>
        <mxCell id="IBm5FJCkrSXbt0ttpxEb-1" value="Node" style="ellipse;whiteSpace=wrap;html=1;aspect=fixed;fontSize=16;" vertex="1" parent="1">
          <mxGeometry x="240" y="70" width="80" height="80" as="geometry" />
        </mxCell>
        <mxCell id="IBm5FJCkrSXbt0ttpxEb-7" style="edgeStyle=orthogonalEdgeStyle;rounded=0;orthogonalLoop=1;jettySize=auto;html=1;exitX=1;exitY=0;exitDx=0;exitDy=0;entryX=0.5;entryY=1;entryDx=0;entryDy=0;curved=1;" edge="1" parent="1" source="IBm5FJCkrSXbt0ttpxEb-2" target="IBm5FJCkrSXbt0ttpxEb-1">
          <mxGeometry relative="1" as="geometry" />
        </mxCell>
        <mxCell id="IBm5FJCkrSXbt0ttpxEb-2" value="Node" style="ellipse;whiteSpace=wrap;html=1;aspect=fixed;fontSize=16;" vertex="1" parent="1">
          <mxGeometry x="140" y="267" width="80" height="80" as="geometry" />
        </mxCell>
        <mxCell id="IBm5FJCkrSXbt0ttpxEb-6" style="rounded=0;orthogonalLoop=1;jettySize=auto;html=1;exitX=0;exitY=0;exitDx=0;exitDy=0;entryX=1;entryY=1;entryDx=0;entryDy=0;" edge="1" parent="1" source="IBm5FJCkrSXbt0ttpxEb-3" target="IBm5FJCkrSXbt0ttpxEb-1">
          <mxGeometry relative="1" as="geometry" />
        </mxCell>
        <mxCell id="IBm5FJCkrSXbt0ttpxEb-3" value="Node" style="ellipse;whiteSpace=wrap;html=1;aspect=fixed;fontSize=16;" vertex="1" parent="1">
          <mxGeometry x="340" y="267" width="80" height="80" as="geometry" />
        </mxCell>
      </root>
    </mxGraphModel>
  </diagram>
</mxfile>
